<svg id="SvgjsSvg1083" width="288" height="288" xmlns="http://www.w3.org/2000/svg" version="1.1" xmlns:xlink="http://www.w3.org/1999/xlink" xmlns:svgjs="http://svgjs.com/svgjs"><defs id="SvgjsDefs1084"></defs><g id="SvgjsG1085"><svg xmlns="http://www.w3.org/2000/svg" enable-background="new 0 0 512 512" viewBox="0 0 512 512" width="288" height="288"><path d="M431.1,500.9H80.9V11.1h350.1V500.9z M101.8,480h309.5V32H101.8V480z" fill="#ffffff" class="color000 svgShape"></path><path d="M383.1,184.1H128.9V66.3h254.3V184.1z M149.7,163.3h213.6V87.2H149.7V163.3z" fill="#ffffff" class="color000 svgShape"></path><rect width="45.8" height="20.8" x="139.3" y="239.3" fill="#ffffff" class="color000 svgShape"></rect><rect width="45.8" height="20.8" x="233.1" y="239.3" fill="#ffffff" class="color000 svgShape"></rect><rect width="45.8" height="20.8" x="326.9" y="239.3" fill="#ffffff" class="color000 svgShape"></rect><rect width="45.8" height="20.8" x="139.3" y="299.8" fill="#ffffff" class="color000 svgShape"></rect><rect width="45.8" height="20.8" x="233.1" y="299.8" fill="#ffffff" class="color000 svgShape"></rect><rect width="45.8" height="20.8" x="326.9" y="299.8" fill="#ffffff" class="color000 svgShape"></rect><rect width="45.8" height="20.8" x="139.3" y="361.2" fill="#ffffff" class="color000 svgShape"></rect><rect width="45.8" height="20.8" x="233.1" y="361.2" fill="#ffffff" class="color000 svgShape"></rect><rect width="45.8" height="20.8" x="139.3" y="422.7" fill="#ffffff" class="color000 svgShape"></rect><rect width="45.8" height="20.8" x="233.1" y="422.7" fill="#ffffff" class="color000 svgShape"></rect><rect width="20.8" height="86.5" x="340.4" y="357.1" fill="#ffffff" class="color000 svgShape"></rect></svg></g></svg>