<?xml version="1.0" encoding="iso-8859-1"?>
<!-- Generator: Adobe Illustrator 19.0.0, SVG Export Plug-In . SVG Version: 6.00 Build 0)  -->
<svg version="1.1" id="Layer_1" xmlns="http://www.w3.org/2000/svg" xmlns:xlink="http://www.w3.org/1999/xlink" x="0px"
    y="0px" viewBox="0 0 496 496" style="enable-background:new 0 0 496 496;" xml:space="preserve">
    <g>
        <g>
            <g>
                <path d="M496,384h-72v-24h-16v24H288v-80h16v-16h-16v-22.024c55.528-17.12,96-68.904,96-129.976C384,61.008,322.992,0,248,0
				S112,61.008,112,136c0,61.072,40.472,112.856,96,129.976V288h-16v16h16v80H88v-24H72v24H0v16h72v56H0v16h72v24h16v-24h320v24h16
				v-24h72v-16h-72v-56h72V384z M128,136c0-66.168,53.832-120,120-120s120,53.832,120,120c0,66.168-53.832,120-120,120
				S128,202.168,128,136z M224,288v-18.248c7.808,1.392,15.8,2.248,24,2.248s16.192-0.856,24-2.248V288H224z M272,304v80h-48v-80
				H272z M408,456H88v-56h320V456z" />
                <path d="M248,160c13.232,0,24-10.768,24-24s-10.768-24-24-24s-24,10.768-24,24c0,2.536,0.504,4.928,1.232,7.224l-45.2,25.832
				l7.936,13.888l46.984-26.848C238.72,158.544,243.184,160,248,160z M248,128c4.408,0,8,3.592,8,8s-3.592,8-8,8
				c-4.408,0-8-3.592-8-8S243.592,128,248,128z" />
                <rect x="104" y="408" width="16" height="16" />
                <rect x="104" y="432" width="16" height="16" />
                <rect x="40" y="408" width="16" height="16" />
                <rect x="40" y="432" width="16" height="16" />
                <rect x="440" y="408" width="16" height="16" />
                <rect x="440" y="432" width="16" height="16" />
                <rect x="376" y="408" width="16" height="16" />
                <rect x="376" y="432" width="16" height="16" />
                <rect x="240" y="32" width="16" height="16" />
                <rect x="192" y="44.868" transform="matrix(0.5 0.866 -0.866 0.5 145.7824 -146.7702)" width="16"
                    height="16" />
                <rect x="156.856" y="79.996" transform="matrix(0.866 0.5 -0.5 0.866 66.0863 -70.64)" width="16"
                    height="16" />
                <rect x="144" y="128" width="16" height="16" />
                <rect x="156.866" y="176.036" transform="matrix(-0.4999 -0.8661 0.8661 -0.4999 87.8902 418.8236)"
                    width="16" height="16" />
                <rect x="323.12" y="176.018" transform="matrix(0.866 0.5 -0.5 0.866 136.3753 -140.909)" width="16"
                    height="16" />
                <rect x="336" y="128" width="16" height="16" />
                <rect x="323.126" y="80.019" transform="matrix(0.4999 0.8661 -0.8661 0.4999 241.831 -242.765)"
                    width="16" height="16" />
                <rect x="287.996" y="44.851" transform="matrix(0.8661 0.4999 -0.4999 0.8661 66.0578 -140.8888)"
                    width="16" height="16" />
                <rect x="200" y="208" width="96" height="16" />
            </g>
        </g>
    </g>
    <g>
    </g>
    <g>
    </g>
    <g>
    </g>
    <g>
    </g>
    <g>
    </g>
    <g>
    </g>
    <g>
    </g>
    <g>
    </g>
    <g>
    </g>
    <g>
    </g>
    <g>
    </g>
    <g>
    </g>
    <g>
    </g>
    <g>
    </g>
    <g>
    </g>
</svg>