<svg id="SvgjsSvg1006" width="288" height="288" xmlns="http://www.w3.org/2000/svg" version="1.1" xmlns:xlink="http://www.w3.org/1999/xlink" xmlns:svgjs="http://svgjs.com/svgjs"><defs id="SvgjsDefs1007"></defs><g id="SvgjsG1008" transform="matrix(1,0,0,1,0,0)"><svg xmlns="http://www.w3.org/2000/svg" enable-background="new 0 0 496 496" viewBox="0 0 496 496" width="288" height="288"><path d="M496,384h-72v-24h-16v24H288v-80h16v-16h-16v-22.024c55.528-17.12,96-68.904,96-129.976C384,61.008,322.992,0,248,0
				S112,61.008,112,136c0,61.072,40.472,112.856,96,129.976V288h-16v16h16v80H88v-24H72v24H0v16h72v56H0v16h72v24h16v-24h320v24h16
				v-24h72v-16h-72v-56h72V384z M128,136c0-66.168,53.832-120,120-120s120,53.832,120,120c0,66.168-53.832,120-120,120
				S128,202.168,128,136z M224,288v-18.248c7.808,1.392,15.8,2.248,24,2.248s16.192-0.856,24-2.248V288H224z M272,304v80h-48v-80
				H272z M408,456H88v-56h320V456z" fill="#ffffff" class="color000 svgShape"></path><path d="M248,160c13.232,0,24-10.768,24-24s-10.768-24-24-24s-24,10.768-24,24c0,2.536,0.504,4.928,1.232,7.224l-45.2,25.832
				l7.936,13.888l46.984-26.848C238.72,158.544,243.184,160,248,160z M248,128c4.408,0,8,3.592,8,8s-3.592,8-8,8
				c-4.408,0-8-3.592-8-8S243.592,128,248,128z" fill="#ffffff" class="color000 svgShape"></path><rect width="16" height="16" x="104" y="408" fill="#ffffff" class="color000 svgShape"></rect><rect width="16" height="16" x="104" y="432" fill="#ffffff" class="color000 svgShape"></rect><rect width="16" height="16" x="40" y="408" fill="#ffffff" class="color000 svgShape"></rect><rect width="16" height="16" x="40" y="432" fill="#ffffff" class="color000 svgShape"></rect><rect width="16" height="16" x="440" y="408" fill="#ffffff" class="color000 svgShape"></rect><rect width="16" height="16" x="440" y="432" fill="#ffffff" class="color000 svgShape"></rect><rect width="16" height="16" x="376" y="408" fill="#ffffff" class="color000 svgShape"></rect><rect width="16" height="16" x="376" y="432" fill="#ffffff" class="color000 svgShape"></rect><rect width="16" height="16" x="240" y="32" fill="#ffffff" class="color000 svgShape"></rect><rect width="16" height="16" x="192" y="44.868" transform="rotate(60 200.003 52.865)" fill="#ffffff" class="color000 svgShape"></rect><rect width="16" height="16" x="156.856" y="79.996" transform="rotate(30 164.861 87.99)" fill="#ffffff" class="color000 svgShape"></rect><rect width="16" height="16" x="144" y="128" fill="#ffffff" class="color000 svgShape"></rect><rect width="16" height="16" x="156.866" y="176.036" transform="rotate(-119.993 164.866 184.034)" fill="#ffffff" class="color000 svgShape"></rect><rect width="16" height="16" x="323.12" y="176.018" transform="rotate(30 331.132 184.007)" fill="#ffffff" class="color000 svgShape"></rect><rect width="16" height="16" x="336" y="128" fill="#ffffff" class="color000 svgShape"></rect><rect width="16" height="16" x="323.126" y="80.019" transform="rotate(60.007 331.123 88.023)" fill="#ffffff" class="color000 svgShape"></rect><rect width="16" height="16" x="287.996" y="44.851" transform="rotate(29.991 295.993 52.86)" fill="#ffffff" class="color000 svgShape"></rect><rect width="96" height="16" x="200" y="208" fill="#ffffff" class="color000 svgShape"></rect></svg></g></svg>