<svg id="SvgjsSvg1048" width="288" height="288" xmlns="http://www.w3.org/2000/svg" version="1.1" xmlns:xlink="http://www.w3.org/1999/xlink" xmlns:svgjs="http://svgjs.com/svgjs"><defs id="SvgjsDefs1049"></defs><g id="SvgjsG1050"><svg xmlns="http://www.w3.org/2000/svg" xmlns:svgjs="http://svgjs.com/svgjs" xmlns:xlink="http://www.w3.org/1999/xlink" width="288" height="288"><svg xmlns="http://www.w3.org/2000/svg" width="288" height="288" enable-background="new 0 0 512 512" viewBox="0 0 512 512"><path fill="#3f3a3a" d="M187.515,380.716h-85.179c-7.407,0-13.431,6.024-13.431,13.431v66.999c0,7.407,6.026,13.432,13.431,13.432h85.179			c7.407,0,13.431-6.025,13.431-13.432v-66.999C200.946,386.741,194.921,380.716,187.515,380.716z M182.975,456.607h-76.098v-57.918
			h76.098V456.607z" class="color000 svgShape colorfff"></path><path fill="#3f3a3a" d="M441.616,26.951h-0.235h-16.225V8.986c0-4.964-4.023-8.986-8.986-8.986c-4.963,0-8.986,4.022-8.986,8.986v17.965h-27.496
			V8.986c0-4.964-4.023-8.986-8.986-8.986c-4.963,0-8.986,4.022-8.986,8.986v17.965h-27.496V8.986c0-4.964-4.023-8.986-8.986-8.986
			c-4.963,0-8.986,4.022-8.986,8.986v17.965H288.75V8.986c0-4.964-4.023-8.986-8.986-8.986c-4.963,0-8.986,4.022-8.986,8.986v17.965
			h-27.496V8.986c0-4.964-4.023-8.986-8.986-8.986s-8.986,4.022-8.986,8.986v17.965h-27.496V8.986c0-4.964-4.023-8.986-8.986-8.986
			c-4.963,0-8.986,4.022-8.986,8.986v17.965h-27.496V8.986c0-4.964-4.023-8.986-8.986-8.986s-8.986,4.022-8.986,8.986v17.965
			h-27.495V8.986c0-4.964-4.023-8.986-8.986-8.986s-8.986,4.022-8.986,8.986v17.965H69.813h-0.235
			c-12.861,0-23.324,10.463-23.324,23.326v0.235v437.929v0.235c0,12.861,10.463,23.324,23.324,23.324h0.235h248.174h123.627
			c12.861,0,23.326-10.462,23.326-23.324V365.048V146.169c0-4.963-4.023-8.986-8.986-8.986s-8.986,4.022-8.986,8.986v215.282
			c-21.534,23.898-52.076,37.54-84.313,37.54l-0.767-0.011c-2.474-0.037-4.741,0.935-6.445,2.648
			c-1.705,1.715-2.647,4.041-2.616,6.459l0.01,0.567c0.005,0.337,0.012,0.675,0.012,1.012c0,32.263-13.663,62.825-37.594,84.362
			H69.813c-3.08,0-5.588-2.507-5.588-5.587V50.512c0-3.082,2.507-5.588,5.588-5.588h19.092v24.049c0,4.964,4.023,8.986,8.986,8.986
			s8.986-4.022,8.986-8.986V44.923h27.496v24.049c0,4.964,4.023,8.986,8.986,8.986c4.963,0,8.986-4.022,8.986-8.986V44.923h27.495
			v24.049c0,4.964,4.023,8.986,8.986,8.986c4.963,0,8.986-4.022,8.986-8.986V44.923h27.496v24.049c0,4.964,4.023,8.986,8.986,8.986
			s8.986-4.022,8.986-8.986V44.923h27.496v24.049c0,4.964,4.023,8.986,8.986,8.986c4.963,0,8.986-4.022,8.986-8.986V44.923h27.496
			v24.049c0,4.964,4.023,8.986,8.986,8.986c4.963,0,8.986-4.022,8.986-8.986V44.923h27.496v24.049c0,4.964,4.023,8.986,8.986,8.986
			c4.963,0,8.986-4.022,8.986-8.986V44.923h27.496v24.049c0,4.964,4.023,8.986,8.986,8.986c4.963,0,8.986-4.022,8.986-8.986V44.923
			h16.225c3.082,0,5.588,2.507,5.588,5.588V75.08c0,4.964,4.023,8.986,8.986,8.986c4.963,0,8.986-4.022,8.986-8.986V50.512v-0.235
			C464.942,37.416,454.478,26.951,441.616,26.951z M446.967,435.411v53.265h0c0,2.951-2.401,5.352-5.353,5.352H388.35
			C413.039,480.504,433.443,460.1,446.967,435.411z M370.633,416.723c27.252-1.649,53.114-11.708,74.199-28.615
			c-4.667,25.486-16.884,48.964-35.529,67.716c-18.574,18.68-41.875,31.013-67.215,35.868
			C359.11,470.396,369.16,444.248,370.633,416.723z" class="color000 svgShape colorfff"></path><path fill="#3f3a3a" d="M416.168 151.687H97.891c-4.963 0-8.986 4.022-8.986 8.986s4.023 8.986 8.986 8.986h318.277c4.963 0 8.986-4.022 8.986-8.986S421.131 151.687 416.168 151.687zM416.168 192.544H97.891c-4.963 0-8.986 4.022-8.986 8.986s4.023 8.986 8.986 8.986h318.277c4.963 0 8.986-4.022 8.986-8.986S421.131 192.544 416.168 192.544zM416.168 233.401H97.891c-4.963 0-8.986 4.022-8.986 8.986 0 4.964 4.023 8.986 8.986 8.986h318.277c4.963 0 8.986-4.022 8.986-8.986C425.155 237.423 421.131 233.401 416.168 233.401zM416.168 274.257H97.891c-4.963 0-8.986 4.022-8.986 8.986 0 4.964 4.023 8.986 8.986 8.986h318.277c4.963 0 8.986-4.022 8.986-8.986C425.155 278.28 421.131 274.257 416.168 274.257zM416.168 315.114H97.891c-4.963 0-8.986 4.022-8.986 8.986 0 4.964 4.023 8.986 8.986 8.986h318.277c4.963 0 8.986-4.022 8.986-8.986C425.155 319.136 421.131 315.114 416.168 315.114z" class="color000 svgShape colorfff"></path><circle cx="455.954" cy="110.361" r="9.792" fill="#3f3a3a" class="color000 svgShape colorfff"></circle></svg></svg></g></svg>