<svg id="SvgjsSvg1064" width="288" height="288" xmlns="http://www.w3.org/2000/svg" version="1.1" xmlns:xlink="http://www.w3.org/1999/xlink" xmlns:svgjs="http://svgjs.com/svgjs"><defs id="SvgjsDefs1065"></defs><g id="SvgjsG1066"><svg xmlns="http://www.w3.org/2000/svg" enable-background="new 0 0 463.783 463.783" viewBox="0 0 463.783 463.783" width="288" height="288"><path d="M416.851,306.884l-22.625-22.625c-2.93-2.929-7.678-2.929-10.607,0l-54.625,54.625c-2.929,2.929-2.929,7.678,0,10.606
		l8.353,8.353l-14.011,14.011c-3.101,3.101-7.218,4.815-11.6,4.833l-33.457-0.649v-28.261l116.429-116.429
		c2.929-2.929,2.929-7.678,0-10.606l-22.625-22.625c-2.93-2.929-7.678-2.929-10.607,0L251.077,308.515
		c-3.873-1.272-8.005-1.97-12.298-1.97c-10.042,0-19.215,3.773-26.192,9.968c-34.489-11.28-58.321-43.831-58.321-80.229
		c0-10.073,1.798-19.925,5.303-29.331c6.453-1.215,12.454-3.727,17.707-7.274l23.626,23.344c0.041,0.041,0.086,0.075,0.128,0.115
		c0.115,0.108,0.231,0.214,0.353,0.316c0.076,0.063,0.153,0.122,0.23,0.182c0.114,0.087,0.229,0.172,0.348,0.253
		c0.097,0.066,0.195,0.127,0.294,0.188c0.104,0.064,0.209,0.126,0.317,0.185c0.122,0.067,0.245,0.128,0.369,0.187
		c0.093,0.044,0.186,0.089,0.281,0.13c0.143,0.061,0.288,0.115,0.434,0.167c0.059,0.021,0.114,0.047,0.173,0.067l34.427,11.318
		l15.704,15.704c3.022,3.022,6.991,4.533,10.96,4.533c3.97,0,7.938-1.511,10.961-4.533l20.687-20.687
		c6.043-6.043,6.043-15.876,0-21.92l-15.669-15.669l-10.939-34.758c-0.03-0.096-0.07-0.186-0.104-0.28
		c-0.047-0.13-0.09-0.26-0.144-0.387c-0.058-0.137-0.125-0.267-0.19-0.399c-0.042-0.086-0.081-0.174-0.127-0.258
		c-0.083-0.154-0.176-0.3-0.268-0.446c-0.037-0.059-0.071-0.119-0.11-0.177c-0.106-0.157-0.22-0.306-0.337-0.453
		c-0.035-0.044-0.067-0.09-0.103-0.133c-0.123-0.149-0.255-0.289-0.388-0.427c-0.032-0.033-0.061-0.07-0.094-0.103l-0.045-0.045
		c-0.014-0.014-0.028-0.028-0.042-0.042l-92.826-92.378c-4.438-4.438-10.34-6.883-16.617-6.883c-6.12,0-11.878,2.329-16.277,6.559
		l-30.99-30.99c1.104-2.732,1.69-5.675,1.69-8.71c0-6.208-2.417-12.046-6.809-16.438C101.791,2.418,95.954,0,89.745,0
		S77.699,2.418,73.308,6.808L51.543,28.574c-4.39,4.39-6.808,10.228-6.808,16.437s2.419,12.046,6.81,16.436
		c4.531,4.53,10.482,6.795,16.435,6.795c2.961,0,5.921-0.563,8.707-1.684l31.006,31.006c-8.829,9.188-8.735,23.835,0.316,32.886
		l2.631,2.63c0.24,0.24,0.496,0.453,0.759,0.654c-5.131,7.584-8.131,16.723-8.131,26.55c0,4.75,0.709,9.336,2.013,13.667
		c-9.291,19.769-14.013,40.726-14.013,62.333c0,33.592,11.063,65.245,31.991,91.538c19.377,24.343,46.244,42.131,76.021,50.439
		v38.523h-32.486c-17.369,0-31.5,14.131-31.5,31.5v8c0,4.142,3.357,7.5,7.5,7.5h191.974c4.143,0,7.5-3.358,7.5-7.5v-8
		c0-17.369-14.131-31.5-31.5-31.5h-32.487v-25.742l33.244,0.645c0.049,0.001,0.097,0.001,0.146,0.001
		c8.414,0,16.324-3.276,22.274-9.226l14.011-14.011l3.665,3.665c1.465,1.464,3.385,2.197,5.304,2.197s3.839-0.732,5.304-2.197
		l54.625-54.625C419.78,314.562,419.78,309.813,416.851,306.884z M366.779,214.026l12.019,12.019L274.855,329.988
		c-2.378-5.321-5.896-10.02-10.247-13.79L366.779,214.026z M118.266,160.283c0-17.92,14.579-32.5,32.5-32.5s32.5,14.58,32.5,32.5
		s-14.579,32.5-32.5,32.5S118.266,178.204,118.266,160.283z M259.367,175.102l6.412,20.375l-25.521,25.521l-20.159-6.628
		L259.367,175.102z M285.963,220.542l-20.687,20.687c-0.192,0.193-0.512,0.195-0.706,0l-11.665-11.665l21.394-21.394l11.664,11.665
		C286.158,220.03,286.158,220.347,285.963,220.542z M158.567,71.389c2.271,0,4.404,0.884,6.023,2.502l87.599,87.174l-46.047,46.046
		l-17.904-17.69c6.276-8.052,10.028-18.162,10.028-29.139c0-26.191-21.309-47.5-47.5-47.5c-10.997,0-21.124,3.767-29.184,10.064
		c-0.111-0.126-0.219-0.254-0.339-0.375l-2.63-2.63c-3.314-3.314-3.314-8.707,0-12.021l33.941-33.942
		C154.162,72.273,156.297,71.389,158.567,71.389z M101.995,43.867l29.679,29.679L118.282,86.94l-29.68-29.68L101.995,43.867z
		 M62.15,50.839c-1.558-1.557-2.415-3.627-2.415-5.829s0.857-4.272,2.415-5.83l21.766-21.766C85.473,15.857,87.543,15,89.745,15
		s4.272,0.857,5.831,2.417c1.557,1.557,2.414,3.627,2.414,5.83s-0.857,4.272-2.415,5.829L73.808,50.839
		C70.594,54.053,65.365,54.053,62.15,50.839z M134.994,318.479c-18.794-23.61-28.728-52.033-28.728-82.196
		c0-15.6,2.753-30.831,8.174-45.441c7.268,8.626,17.539,14.641,29.191,16.404c-2.886,9.396-4.365,19.127-4.365,29.037
		c0,41.158,25.862,78.135,63.858,92.776c-2.463,5.148-3.845,10.908-3.845,16.986v16.55
		C174.14,354.697,151.532,339.256,134.994,318.479z M327.266,448.283v0.5H150.293v-0.5c0-9.098,7.402-16.5,16.5-16.5h143.974
		C319.864,431.783,327.266,439.185,327.266,448.283z M214.279,416.783v-70.738c0-13.509,10.99-24.5,24.5-24.5s24.5,10.991,24.5,24.5
		v70.738H214.279z M356.923,356.206l-12.019-12.019l44.019-44.019l12.019,12.019L356.923,356.206z" fill="#ffffff" class="color000 svgShape"></path><path d="M150.786 167.783c4.143 0 7.5-3.358 7.5-7.5s-3.357-7.5-7.5-7.5h-.01c-4.142 0-7.495 3.358-7.495 7.5S146.644 167.783 150.786 167.783zM238.775 344.78c-1.971 0-3.9.8-5.3 2.2-1.391 1.4-2.2 3.33-2.2 5.3 0 1.98.81 3.91 2.2 5.31 1.399 1.39 3.329 2.19 5.3 2.19 1.979 0 3.91-.8 5.31-2.19 1.391-1.4 2.19-3.33 2.19-5.31 0-1.97-.8-3.91-2.19-5.3C242.685 345.58 240.755 344.78 238.775 344.78z" fill="#ffffff" class="color000 svgShape"></path></svg></g></svg>