<svg id="SvgjsSvg1036" width="288" height="288" xmlns="http://www.w3.org/2000/svg" version="1.1" xmlns:xlink="http://www.w3.org/1999/xlink" xmlns:svgjs="http://svgjs.com/svgjs"><defs id="SvgjsDefs1037"></defs><g id="SvgjsG1038"><svg xmlns="http://www.w3.org/2000/svg" enable-background="new 0 0 512 512" viewBox="0 0 512 512" width="288" height="288"><circle cx="325.818" cy="244.364" r="11.636" fill="#ffffff" class="color000 svgShape"></circle><circle cx="162.909" cy="256" r="11.636" fill="#ffffff" class="color000 svgShape"></circle><circle cx="244.364" cy="267.636" r="11.636" fill="#ffffff" class="color000 svgShape"></circle><path d="M256,93.091c-143.546,0-256,51.119-256,116.364v93.091c0,65.245,112.454,116.364,256,116.364s256-51.119,256-116.364
			v-93.091C512,144.209,399.546,93.091,256,93.091z M256,395.636c-139.206,0-232.727-48.14-232.727-93.091
			c0-10.624,5.027-21.167,14.801-31.441C82.758,304.151,162.688,325.818,256,325.818s173.242-21.667,217.926-54.703
			c9.775,10.252,14.801,20.794,14.801,31.43C488.727,347.497,395.206,395.636,256,395.636z M256,302.545
			c-139.206,0-232.727-48.14-232.727-93.091c0-44.951,93.521-93.091,232.727-93.091s232.727,48.14,232.727,93.091
			C488.727,254.406,395.206,302.545,256,302.545z" fill="#ffffff" class="color000 svgShape"></path><path d="M435.2,218.589c-47.791-20.899-111.43-32.407-179.2-32.407c-67.782,0-131.421,11.508-179.2,32.407
			c-5.888,2.572-8.576,9.437-5.993,15.313c2.572,5.9,9.437,8.599,15.313,6.004C131.025,220.276,191.36,209.454,256,209.454
			s124.963,10.822,169.868,30.452c1.513,0.675,3.107,0.977,4.655,0.977c4.48,0,8.751-2.607,10.671-6.982
			C443.776,228.014,441.088,221.149,435.2,218.589z" fill="#ffffff" class="color000 svgShape"></path></svg></g></svg>